<svg xmlns="http://www.w3.org/2000/svg"  viewBox="0 0 50 18"><g fill="none" fill-rule="evenodd"><path d="M47.263 7.107c0-.548.424-.992.941-.992.52 0 .94.444.94.992 0 .549-.42.993-.94.993-.517 0-.94-.444-.94-.993zm.942.758c.395 0 .718-.34.718-.758 0-.415-.323-.752-.718-.752-.394 0-.719.337-.719.752 0 .417.325.758.719.758zm-.129-.323h-.191v-.874h.35c.07 0 .15.004.211.048.067.05.105.132.105.22a.23.23 0 01-.142.22l.151.386h-.214l-.128-.343h-.14v.343zm0-.491h.108c.04 0 .085.001.118-.018.033-.022.047-.064.047-.102 0-.032-.019-.072-.047-.087-.029-.02-.087-.016-.12-.016h-.106v.223zM33.807.512l-.258 1.682c-.56-.299-.97-.416-1.41-.416-1.172 0-2.001 1.195-2.001 2.901 0 1.179.556 1.889 1.472 1.889.388 0 .815-.125 1.337-.4l-.275 1.77c-.578.167-.955.226-1.391.226-1.698 0-2.755-1.284-2.755-3.346 0-2.773 1.46-4.71 3.547-4.71.27 0 .51.026.706.083l.65.17c.193.078.236.09.378.15zM28.58 1.665a.817.817 0 00-.16-.017c-.52 0-.813.276-1.295 1.027l.14-.958h-1.426l-.967 6.304h1.582c.566-3.853.71-4.519 1.47-4.519.045 0 .05 0 .114.007.14-.76.332-1.318.596-1.828l-.054-.016zm-9.427 6.279c-.428.143-.766.208-1.13.208-.804 0-1.242-.49-1.242-1.387 0-.175.013-.365.044-.565l.098-.615.072-.502.683-4.302h1.566l-.18.936h.806l-.221 1.532h-.804l-.416 2.631c-.014.117-.026.202-.026.262 0 .322.164.467.536.467.182 0 .319-.02.424-.06l-.21 1.395zM12.945 3.71c0 .796.366 1.346 1.194 1.758.634.316.735.408.735.695 0 .392-.282.573-.901.573-.468 0-.905-.078-1.408-.252l-.218 1.454.071.015.29.061c.092.02.23.038.41.058.375.035.663.052.867.052 1.652 0 2.416-.67 2.416-2.105 0-.863-.319-1.373-1.106-1.755-.657-.314-.731-.388-.731-.681 0-.342.26-.518.766-.518.309 0 .727.037 1.127.094l.224-1.456a9.812 9.812 0 00-1.381-.124c-1.753 0-2.36.968-2.354 2.131zm33.404 4.311h-1.49l.078-.617c-.434.488-.88.7-1.455.7-1.152 0-1.906-1.04-1.906-2.617 0-2.097 1.172-3.867 2.565-3.867.612 0 1.075.266 1.51.863l.344-2.215h1.552L46.35 8.021zm-2.324-1.484c.736 0 1.25-.876 1.25-2.124 0-.801-.294-1.238-.838-1.238-.713 0-1.22.88-1.22 2.12 0 .826.273 1.242.808 1.242zM24.141 7.889c-.539.17-1.06.255-1.618.253-1.756 0-2.674-.97-2.674-2.822 0-2.167 1.167-3.762 2.754-3.762 1.294 0 2.125.894 2.125 2.295 0 .464-.056.916-.197 1.555h-3.13c-.014.096-.016.14-.016.196 0 .737.469 1.108 1.385 1.108.562 0 1.067-.122 1.634-.401l-.263 1.578zm-.884-3.754c.01-.132.011-.24.011-.32 0-.515-.277-.816-.745-.816-.5 0-.858.402-1.004 1.131l1.738.005zM6.624 8.021H5.05l.901-5.958-2.013 5.958H2.86l-.13-5.923-.95 5.923H.307L1.536.268h2.268l.062 4.798L5.396.268h2.447zm4.053-2.808a2.594 2.594 0 00-.352-.027c-.892 0-1.344.325-1.344.962 0 .393.222.643.566.643.64 0 1.104-.643 1.13-1.578zm1.146 2.808h-1.304l.028-.654c-.397.522-.928.764-1.65.764-.856 0-1.44-.703-1.44-1.718 0-1.539 1.021-2.433 2.767-2.433.179 0 .406.014.64.047.05-.208.063-.298.063-.409 0-.416-.274-.574-1.012-.574-.445 0-.956.068-1.309.18l-.219.063-.138.041.217-1.414c.786-.245 1.304-.34 1.887-.34 1.353 0 2.07.641 2.07 1.85 0 .313-.022.546-.13 1.25l-.33 2.234-.053.403-.04.322-.028.22-.02.168zm24.696-2.808a2.568 2.568 0 00-.35-.027c-.896 0-1.35.325-1.35.962 0 .393.226.643.57.643.643 0 1.102-.643 1.13-1.578zm1.146 2.807H36.36l.03-.654c-.397.522-.93.764-1.65.764-.856 0-1.443-.703-1.443-1.718 0-1.539 1.02-2.433 2.77-2.433.178 0 .407.014.64.047.049-.208.063-.298.063-.409 0-.416-.274-.574-1.012-.574-.448 0-.958.068-1.307.18l-.224.063-.136.041.219-1.414c.787-.245 1.303-.34 1.883-.34 1.355 0 2.072.641 2.072 1.85 0 .313-.027.546-.129 1.25l-.332 2.234-.049.403-.044.322-.028.22-.018.168zm4.399-6.355a.743.743 0 00-.158-.017c-.517 0-.813.276-1.297 1.027l.14-.958h-1.424l-.963 6.304h1.577c.566-3.853.715-4.519 1.468-4.519.05 0 .046-.004.11.007.143-.76.336-1.318.6-1.828l-.053-.016z" fill="#EC2127"/><g fill="#F89620"><path d="M35.456 14.136c0 1.429-.44 2.27-1.136 2.27-.508.016-.816-.551-.816-1.4 0-1.004.45-2.141 1.171-2.141.58 0 .781.616.781 1.27zm1.549.026c0-1.589-.783-2.825-2.254-2.825-1.694 0-2.79 1.503-2.79 3.717 0 1.585.648 2.88 2.251 2.88 1.618 0 2.793-1.148 2.793-3.772zm-4.538-3.941l-.241 1.68c-.524-.296-.905-.42-1.316-.42-1.1 0-1.87 1.201-1.87 2.907 0 1.178.516 1.89 1.373 1.89.365 0 .765-.125 1.25-.4l-.254 1.77c-.544.168-.9.225-1.304.225-1.585 0-2.572-1.285-2.572-3.347 0-2.774 1.362-4.71 3.314-4.71.253 0 .477.031.662.083l.602.171c.186.074.224.087.356.151zm-9.737 1.155a.556.556 0 00-.152-.018c-.477 0-.757.277-1.205 1.025l.13-.956h-1.331l-.899 6.305h1.47c.53-3.857.67-4.52 1.374-4.52.042 0 .046 0 .108.006.132-.762.31-1.321.558-1.831l-.054-.011zm19.206 6.288h-1.39l.072-.615c-.404.486-.824.7-1.362.7-1.072 0-1.779-1.042-1.779-2.618 0-2.093 1.098-3.87 2.396-3.87.573 0 1.008.272 1.41.87l.323-2.217h1.447l-1.118 7.75zm-2.174-1.482c.693 0 1.17-.876 1.17-2.125 0-.803-.273-1.235-.778-1.235-.67 0-1.144.877-1.144 2.121 0 .822.255 1.239.752 1.239zM8.941 17.639a4.51 4.51 0 01-1.506.257c-1.642 0-2.5-.972-2.5-2.824 0-2.164 1.09-3.76 2.57-3.76 1.213 0 1.986.892 1.986 2.293 0 .463-.053.917-.179 1.556h-2.93a1.7 1.7 0 00-.013.196c0 .735.44 1.106 1.292 1.106.526 0 1-.123 1.527-.4l-.247 1.576zm-.822-3.751a7.8 7.8 0 00.01-.32c0-.515-.257-.816-.694-.816-.47 0-.804.405-.939 1.129l1.623.007zm18.313 3.751a4.53 4.53 0 01-1.507.257c-1.645 0-2.5-.972-2.5-2.824 0-2.164 1.09-3.76 2.57-3.76 1.212 0 1.987.892 1.987 2.293 0 .463-.055.917-.185 1.556h-2.924c-.01.094-.015.141-.015.196 0 .735.438 1.106 1.29 1.106.527 0 1.003-.123 1.53-.4l-.246 1.576zm-.826-3.751c.01-.134.015-.24.015-.32 0-.515-.26-.816-.696-.816-.47 0-.803.405-.939 1.129l1.62.007zm21.347 3.751c-.508.173-.99.257-1.51.257-1.643 0-2.502-.972-2.502-2.824 0-2.164 1.094-3.76 2.573-3.76 1.211 0 1.984.892 1.984 2.293 0 .463-.05.917-.181 1.556h-2.928c-.01.094-.012.141-.012.196 0 .735.44 1.106 1.292 1.106.526 0 1-.123 1.528-.4l-.244 1.576zm-.826-3.751a7.8 7.8 0 00.01-.32c0-.515-.257-.816-.695-.816-.47 0-.802.405-.938 1.129l1.623.007zM4.588 11.661a2.127 2.127 0 00-1.228-.362c-.594 0-1.073.123-1.073.758 0 1.12 2.168.702 2.168 3.1 0 2.185-1.43 2.752-2.725 2.752-.576 0-1.238-.191-1.726-.409l.351-1.605c.295.268.889.452 1.375.452.463 0 1.189-.127 1.189-.938 0-1.269-2.167-.797-2.167-3.025 0-2.038 1.266-2.648 2.488-2.648.687 0 1.333.101 1.712.353l-.363 1.572zm8.659 5.976c-.304.146-.709.242-1.306.242-1.286 0-2.083-1.288-2.083-2.857 0-2.052 1.153-3.69 2.85-3.69.37 0 .935.16 1.38.42l-.325 1.506c-.315-.208-.643-.34-.982-.34-.786 0-1.347.722-1.347 2.017 0 .745.407 1.357 1.05 1.357.384 0 .653-.081.983-.275l-.22 1.62zm5.5-1.579a24.078 24.078 0 00-.187 1.635h-1.416l.12-1.02h-.015c-.443.693-.902 1.165-1.703 1.165-.89 0-1.37-.938-1.37-2.163 0-.422.025-.66.12-1.32l.4-2.918h1.576l-.423 2.927c-.043.314-.103.626-.103.951 0 .37.168.742.592.72.646 0 1.027-.793 1.136-1.717l.434-2.881h1.525l-.686 4.62zM48.42 17.616h-.238V16.57h-.345v-.224h.927v.224h-.344zm1.579 0h-.222v-1.061h-.003l-.213 1.061h-.233l-.208-1.061h-.003v1.061h-.222v-1.27h.347l.207 1.001h.003l.203-1.001h.344z"/></g></g></svg>